<svg class="cloud cloud2" viewBox="0 0 486 853" version="1.1" xmlns="http://www.w3.org/2000/svg"
    xmlns:xlink="http://www.w3.org/1999/xlink">
    <g id="Page-1" stroke="none" stroke-width="1" fill="none" fill-rule="evenodd">
        <g id="Simple-Shiny" transform="translate(-1575.000000, -848.000000)" fill="#D6EBFF">
            <g id="cloud2" transform="translate(1575.000000, 848.000000)">
                <path
                    d="M2.98817406,392 L486,392 L486,852.803682 C377.276976,856.094672 271.68261,817.657329 186.256569,763.974607 C105.315569,713.109737 53.9935688,639.201166 21.9765688,561.134118 C-0.546548104,506.215935 -3.43420443,449.179401 2.98815469,392.000001 Z"
                    id="cloud2_1"></path>
                <path
                    d="M486,-8.52651283e-14 L486,393 L3,393 C5.0258014,374.881326 7.98859519,356.747981 11.5595221,338.662875 C26.2098741,264.465736 40.5013399,184.653007 106.996244,131.401254 C172.173565,79.2054112 276.928331,85.7025184 362.401213,57.6954396 C405.906685,43.4397985 445.829362,20.6149446 486,9.70725722e-11 Z"
                    id="cloud2_2"></path>
            </g>
        </g>
    </g>
</svg>