<?xml version="1.0" encoding="utf-8"?>
<!-- Generator: Adobe Illustrator 25.1.0, SVG Export Plug-In . SVG Version: 6.00 Build 0)  -->
<svg version="1.1" id="Layer_1" xmlns="http://www.w3.org/2000/svg" xmlns:xlink="http://www.w3.org/1999/xlink" x="0px"
	y="0px" viewBox="0 0 85 85" style="enable-background:new 0 0 85 85;" xml:space="preserve">
	<style>
		.st0 {
			fill: #FFFFFF;
		}
	</style>
	<path class="st0" d="M0,0v85h85V0H0z M50.1,65.7c-1.2,0.2-1.6-0.5-1.6-1.1V58c0.1-1.6-0.5-3.2-1.6-4.4C52.2,53,57.7,51,57.7,41.9
	c0-2.4-0.8-4.6-2.4-6.4c0.7-2.1,0.6-4.3-0.2-6.3c0,0-2-0.6-6.5,2.4c-3.9-1.1-8-1.1-11.9,0C32,28.5,30,29.2,30,29.2
	c-0.9,2-1,4.2-0.2,6.3c-1.6,1.7-2.5,4-2.5,6.4c0,9.1,5.6,11.1,10.9,11.8c-0.9,0.8-1.4,2-1.5,3.2c-1.4,0.6-4.8,1.6-6.9-2
	c-0.8-1.3-2.1-2.2-3.7-2.5c0,0-2.3,0-0.2,1.4c0,0,1.5,0.7,2.6,3.5c0,0,1.4,4.2,8,2.8v4.4c0,0.6-0.4,1.4-1.6,1.1
	c-9.7-3.2-16.3-12.3-16.3-22.6c0-13.1,10.6-23.8,23.8-23.8h0.1c10.3,0,19.4,6.6,22.6,16.3C69.3,48,62.6,61.5,50.1,65.7z M36.4,57.8
	c0,0.2-0.2,0.4-0.5,0.4c-0.3,0-0.5-0.1-0.6-0.2c0-0.2,0.2-0.4,0.4-0.5C36.2,57.5,36.4,57.6,36.4,57.8z M34.6,58.1
	c0,0.2-0.2,0.4-0.5,0.4c-0.3,0-0.5-0.2-0.5-0.3s0.2-0.4,0.5-0.4C34.4,57.8,34.6,58,34.6,58.1z M32.7,58c-0.1,0.2-0.3,0.3-0.6,0.2
	c-0.3-0.1-0.4-0.3-0.4-0.5s0.3-0.3,0.6-0.2C32.6,57.6,32.7,57.8,32.7,58z M30.9,57.2c-0.1,0.1-0.4,0.1-0.6-0.1
	c-0.2-0.2-0.3-0.5-0.1-0.6c0.2-0.1,0.5-0.1,0.6,0.1C31,56.8,31,57.1,30.9,57.2z M29.6,55.9c-0.1,0.1-0.4,0-0.5-0.2
	c-0.1-0.2-0.2-0.5,0-0.6c0.1-0.1,0.4,0,0.5,0.2C29.8,55.5,29.8,55.7,29.6,55.9z M28.7,54.5c-0.1,0.1-0.3,0.1-0.5-0.1
	c-0.1-0.1-0.2-0.3-0.1-0.5c0.1-0.1,0.3-0.1,0.5,0.1C28.8,54.2,28.8,54.4,28.7,54.5z M27.7,53.5c0,0.1-0.2,0.1-0.4,0.1
	c-0.2-0.1-0.3-0.2-0.2-0.4c0-0.1,0.2-0.1,0.4-0.1C27.7,53.2,27.8,53.3,27.7,53.5z" />
</svg>