<?xml version="1.0" encoding="utf-8"?>
<!-- Generator: Adobe Illustrator 25.1.0, SVG Export Plug-In . SVG Version: 6.00 Build 0)  -->
<svg version="1.1" id="Layer_1" xmlns="http://www.w3.org/2000/svg" xmlns:xlink="http://www.w3.org/1999/xlink" x="0px"
	y="0px" viewBox="0 0 85 85" style="enable-background:new 0 0 85 85;" xml:space="preserve">
	<style>
		.st0 {
			fill: #FFFFFF;
		}
	</style>
	<path class="st0" d="M0,0v85h85V0H0z M29.2,66.1h-9.9V34.4h9.9V66.1z M24.2,30c-3.2,0-5.7-2.6-5.7-5.7s2.6-5.7,5.7-5.7
	s5.7,2.6,5.7,5.7S27.4,30,24.2,30z M66.2,66.1h-9.9V50.7c0-3.7-0.1-8.4-5.1-8.4s-5.9,4-5.9,8.2v15.7h-9.9l0-31.7h9.5v4.3H45
	c1.9-3.3,5.5-5.3,9.3-5.1c10,0,11.8,6.6,11.8,15.1V66.1z" />
</svg>