<svg xmlns="http://www.w3.org/2000/svg" viewBox="0 0 28.1 34.78"><title>Asset 3</title><g id="Layer_2" data-name="Layer 2"><g id="Layer_1-2" data-name="Layer 1"><path d="M19.27,0V5h-14A4.62,4.62,0,0,1,8.53.34l1-.34Z"/><path d="M9.79,9.9v1.89c0,5.08,0,10.17,0,15.25,0,1.07.09,2.14.19,3.2a2,2,0,0,0,1.27,2,2.31,2.31,0,0,0,2.58-.75,6.83,6.83,0,0,0,1.62-4.84c0-5.08,0-10.17,0-15.25V10h9.75V33.22c.85,0,1.59,0,2.33,0,.19,0,.37.29.55.44-.17.16-.34.45-.52.46-4,0-8,0-12.06,0V31.21c-.16,0-.27,0-.29,0a9.24,9.24,0,0,1-11.75,2.4A6.57,6.57,0,0,1,.25,28.34C0,26.38.05,24.39,0,22.4Q0,18.77,0,15.14A5.07,5.07,0,0,1,5,9.91C6.53,9.82,8.11,9.9,9.79,9.9Z"/></g></g></svg>