<?xml version="1.0" encoding="utf-8"?>
<!-- Generator: Adobe Illustrator 25.1.0, SVG Export Plug-In . SVG Version: 6.00 Build 0)  -->
<svg version="1.1" id="Layer_1" xmlns="http://www.w3.org/2000/svg" xmlns:xlink="http://www.w3.org/1999/xlink" x="0px"
	y="0px" viewBox="0 0 85 85" style="enable-background:new 0 0 85 85;" xml:space="preserve">
	<style>
		.st0 {
			fill: #FFFFFF;
		}
	</style>
	<g>
		<circle class="st0" cx="42.5" cy="42.5" r="7.9" />
		<path class="st0" d="M61,28.5c-0.8-2.1-2.4-3.7-4.5-4.5c-1.4-0.5-2.9-0.8-4.4-0.8C49.6,23,48.8,23,42.5,23s-7.1,0-9.6,0.2
		c-1.5,0-3,0.3-4.4,0.8c-2,0.8-3.7,2.4-4.5,4.5c-0.5,1.4-0.8,2.9-0.9,4.4C23,35.4,23,36.2,23,42.5c0,6.3,0,7.1,0.2,9.6
		c0,1.5,0.3,3,0.8,4.4c0.8,2.1,2.4,3.7,4.5,4.5c1.4,0.5,2.9,0.8,4.4,0.8c2.5,0.1,3.3,0.1,9.6,0.1s7.1,0,9.6-0.1c1.5,0,3-0.3,4.4-0.8
		c2.1-0.8,3.7-2.4,4.5-4.5c0.5-1.4,0.8-2.9,0.8-4.4c0.1-2.5,0.1-3.3,0.1-9.6c0-6.4,0-7.1-0.1-9.6C61.9,31.4,61.6,29.9,61,28.5z
		 M42.5,54.7c-6.7,0-12.2-5.5-12.2-12.2s5.5-12.2,12.2-12.2s12.2,5.5,12.2,12.2S49.2,54.7,42.5,54.7z M55.2,32.7
		c-1.6,0-2.9-1.3-2.9-2.9s1.3-2.9,2.9-2.9s2.9,1.3,2.9,2.9S56.8,32.7,55.2,32.7z" />
		<path class="st0" d="M0,0v85h85V0H0z M66.2,52.4c0,2-0.4,3.9-1.1,5.8c-1.2,3.2-3.8,5.8-7,7c-1.9,0.7-3.8,1.1-5.8,1.1
		c-2.5,0.1-3.3,0.1-9.8,0.1s-7.3,0-9.8-0.1c-2,0-3.9-0.4-5.8-1.1c-3.2-1.2-5.8-3.8-7-7c-0.7-1.9-1.1-3.8-1.1-5.8
		c-0.1-2.5-0.1-3.4-0.1-9.8c0-6.5,0-7.3,0.1-9.8c0-2,0.4-3.9,1.1-5.8c1.2-3.2,3.8-5.8,7-7c1.8-0.7,3.8-1.1,5.8-1.2
		c2.5-0.1,3.3-0.1,9.8-0.1c6.5,0,7.3,0,9.8,0.2c2,0,3.9,0.4,5.8,1.1c3.2,1.2,5.8,3.8,7,7c0.7,1.9,1.1,3.8,1.1,5.8
		c0.1,2.5,0.1,3.4,0.1,9.8C66.3,49,66.3,49.9,66.2,52.4z" />
	</g>
</svg>